<svg width="24" height="24" viewBox="0 0 24 24" fill="none" xmlns="http://www.w3.org/2000/svg">
<path d="M9.5 3L10.0762 2.51986C9.93367 2.34887 9.72258 2.25 9.5 2.25V3ZM12 6L11.4238 6.48014C11.5663 6.65113 11.7774 6.75 12 6.75V6ZM9 12.75C8.58579 12.75 8.25 13.0858 8.25 13.5C8.25 13.9142 8.58579 14.25 9 14.25V12.75ZM15 14.25C15.4142 14.25 15.75 13.9142 15.75 13.5C15.75 13.0858 15.4142 12.75 15 12.75V14.25ZM12.75 10.5C12.75 10.0858 12.4142 9.75 12 9.75C11.5858 9.75 11.25 10.0858 11.25 10.5H12.75ZM11.25 16.5C11.25 16.9142 11.5858 17.25 12 17.25C12.4142 17.25 12.75 16.9142 12.75 16.5H11.25ZM3.25 4C3.25 3.86193 3.36193 3.75 3.5 3.75V2.25C2.5335 2.25 1.75 3.0335 1.75 4H3.25ZM3.5 3.75H9.5V2.25H3.5V3.75ZM8.92383 3.48014L11.4238 6.48014L12.5762 5.51986L10.0762 2.51986L8.92383 3.48014ZM12 6.75H20.5V5.25H12V6.75ZM20.5 6.75C20.6381 6.75 20.75 6.86191 20.75 7H22.25C22.25 6.03349 21.4665 5.25 20.5 5.25V6.75ZM20.75 7V20H22.25V7H20.75ZM20.75 20C20.75 20.1381 20.6381 20.25 20.5 20.25V21.75C21.4665 21.75 22.25 20.9665 22.25 20H20.75ZM20.5 20.25H3.5V21.75H20.5V20.25ZM3.5 20.25C3.36192 20.25 3.25 20.1381 3.25 20H1.75C1.75 20.9665 2.53351 21.75 3.5 21.75V20.25ZM3.25 20V4H1.75V20H3.25ZM9 14.25H15V12.75H9V14.25ZM11.25 10.5V16.5H12.75V10.5H11.25Z" fill="#676778"/>
</svg>
