<svg width="24" height="24" viewBox="0 0 24 24" fill="none" xmlns="http://www.w3.org/2000/svg">
<path d="M21 3.5H3C2.44771 3.5 2 3.94771 2 4.5V19.5C2 20.0523 2.44771 20.5 3 20.5H21C21.5523 20.5 22 20.0523 22 19.5V4.5C22 3.94771 21.5523 3.5 21 3.5Z" fill="#676778" stroke="#676778" stroke-width="1.5"/>
<path d="M8.70703 11.3613L6 10.1836V8.54297L10.3242 10.6758V12.0703L6 14.209V12.5684L8.70703 11.3613Z" fill="white"/>
<path d="M10.9367 14.1562C10.9367 13.8906 11.0246 13.6719 11.2004 13.5C11.3801 13.3281 11.6125 13.2422 11.8976 13.2422C12.175 13.2422 12.4055 13.3281 12.5891 13.5C12.7726 13.668 12.8644 13.8867 12.8644 14.1562C12.8644 14.4297 12.7707 14.6504 12.5832 14.8184C12.3996 14.9824 12.1711 15.0645 11.8976 15.0645C11.6203 15.0645 11.3898 14.9805 11.2062 14.8125C11.0266 14.6445 10.9367 14.4258 10.9367 14.1562Z" fill="white"/>
<path d="M13.3621 14.1562C13.3621 13.8906 13.45 13.6719 13.6258 13.5C13.8055 13.3281 14.0379 13.2422 14.323 13.2422C14.6004 13.2422 14.8308 13.3281 15.0144 13.5C15.198 13.668 15.2898 13.8867 15.2898 14.1562C15.2898 14.4297 15.1961 14.6504 15.0086 14.8184C14.825 14.9824 14.5965 15.0645 14.323 15.0645C14.0457 15.0645 13.8152 14.9805 13.6316 14.8125C13.4519 14.6445 13.3621 14.4258 13.3621 14.1562Z" fill="white"/>
<path d="M15.9015 14.1562C15.9015 13.8906 15.9894 13.6719 16.1652 13.5C16.3449 13.3281 16.5773 13.2422 16.8625 13.2422C17.1398 13.2422 17.3703 13.3281 17.5539 13.5C17.7375 13.668 17.8293 13.8867 17.8293 14.1562C17.8293 14.4297 17.7355 14.6504 17.548 14.8184C17.3644 14.9824 17.1359 15.0645 16.8625 15.0645C16.5851 15.0645 16.3547 14.9805 16.1711 14.8125C15.9914 14.6445 15.9015 14.4258 15.9015 14.1562Z" fill="white"/>
</svg>
