<svg width="24" height="24" viewBox="0 0 24 24" fill="none" xmlns="http://www.w3.org/2000/svg">
<path d="M21 16.5C21 15.9477 20.5523 15.5 20 15.5C19.4477 15.5 19 15.9477 19 16.5H21ZM15.75 21C15.1977 21 14.75 21.4477 14.75 22C14.75 22.5523 15.1977 23 15.75 23V21ZM19 8C19 8.55228 19.4477 9 20 9C20.5523 9 21 8.55228 21 8H19ZM8 23C8.55228 23 9 22.5523 9 22C9 21.4477 8.55228 21 8 21V23ZM8 7C7.44772 7 7 7.44772 7 8C7 8.55228 7.44772 9 8 9V7ZM15 9C15.5523 9 16 8.55228 16 8C16 7.44772 15.5523 7 15 7V9ZM10.7228 21.3708C10.3753 21.8001 10.4415 22.4297 10.8708 22.7772C11.3001 23.1247 11.9297 23.0585 12.2772 22.6292L10.7228 21.3708ZM20.7772 12.1292C21.1247 11.6999 21.0585 11.0703 20.6292 10.7228C20.1999 10.3753 19.5703 10.4415 19.2228 10.8708L20.7772 12.1292ZM8 11C7.44772 11 7 11.4477 7 12C7 12.5523 7.44772 13 8 13V11ZM12 13C12.5523 13 13 12.5523 13 12C13 11.4477 12.5523 11 12 11V13ZM19 16.5V21H21V16.5H19ZM19 21V23C20.1046 23 21 22.1046 21 21H19ZM19 21H15.75V23H19V21ZM21 8V3H19V8H21ZM21 3C21 1.89544 20.1046 1 19 1V3H21ZM19 1H5V3H19V1ZM5 1C3.89543 1 3 1.89543 3 3H5V1ZM3 3V21H5V3H3ZM3 21C3 22.1046 3.89544 23 5 23V21H3ZM5 23H8V21H5V23ZM8 9H15V7H8V9ZM12.2772 22.6292L20.7772 12.1292L19.2228 10.8708L10.7228 21.3708L12.2772 22.6292ZM8 13H12V11H8V13Z" fill="#676778"/>
</svg>
