<svg width="18" height="22" viewBox="0 0 18 22" fill="none" xmlns="http://www.w3.org/2000/svg">
<path d="M18 15.5C18 14.9477 17.5523 14.5 17 14.5C16.4477 14.5 16 14.9477 16 15.5H18ZM12.75 20C12.1977 20 11.75 20.4477 11.75 21C11.75 21.5523 12.1977 22 12.75 22V20ZM16 7C16 7.55228 16.4477 8 17 8C17.5523 8 18 7.55228 18 7H16ZM5 22C5.55228 22 6 21.5523 6 21C6 20.4477 5.55228 20 5 20V22ZM5 6C4.44772 6 4 6.44772 4 7C4 7.55228 4.44772 8 5 8V6ZM12 8C12.5523 8 13 7.55228 13 7C13 6.44772 12.5523 6 12 6V8ZM7.72275 20.3708C7.37526 20.8001 7.44154 21.4297 7.8708 21.7772C8.30006 22.1247 8.92975 22.0585 9.27724 21.6292L7.72275 20.3708ZM17.7772 11.1292C18.1247 10.6999 18.0585 10.0703 17.6292 9.72276C17.1999 9.37526 16.5703 9.44154 16.2228 9.8708L17.7772 11.1292ZM5 10C4.44772 10 4 10.4477 4 11C4 11.5523 4.44772 12 5 12V10ZM9 12C9.55229 12 10 11.5523 10 11C10 10.4477 9.55229 10 9 10V12ZM16 15.5V20H18V15.5H16ZM16 20V22C17.1046 22 18 21.1046 18 20H16ZM16 20H12.75V22H16V20ZM18 7V2H16V7H18ZM18 2C18 0.89544 17.1046 0 16 0V2H18ZM16 0H2V2H16V0ZM2 0C0.89543 0 0 0.89543 0 2H2V0ZM0 2V20H2V2H0ZM0 20C0 21.1046 0.89544 22 2 22V20H0ZM2 22H5V20H2V22ZM5 8H12V6H5V8ZM9.27724 21.6292L17.7772 11.1292L16.2228 9.8708L7.72275 20.3708L9.27724 21.6292ZM5 12H9V10H5V12Z" fill="#676778"/>
</svg>
