<svg width="24" height="24" viewBox="0 0 24 24" fill="none" xmlns="http://www.w3.org/2000/svg">
<path d="M20.75 12C20.75 7.02944 16.7206 3 11.75 3C10.5297 3 9.36619 3.24285 8.30506 3.68286C7.75719 3.91004 7.23662 4.18978 6.74964 4.51579C6.25884 4.84436 5.80216 5.21992 5.38604 5.63604C4.96992 6.05216 4.59436 6.50884 4.26579 6.99964M2.75 12C2.75 16.9706 6.77944 21 11.75 21C12.9703 21 14.1338 20.7571 15.1949 20.3171C15.7428 20.09 16.2634 19.8102 16.7504 19.4842C17.2412 19.1556 17.6978 18.7801 18.114 18.364C18.5301 17.9478 18.9056 17.4912 19.2342 17.0004" stroke="#676778" stroke-width="1.5" stroke-linecap="round" stroke-linejoin="round"/>
<path d="M20.75 4V12" stroke="#676778" stroke-width="1.5" stroke-linecap="round" stroke-linejoin="round"/>
<path d="M2.75 12L2.75 20" stroke="#676778" stroke-width="1.5" stroke-linecap="round" stroke-linejoin="round"/>
</svg>
