<svg width="89" height="100" viewBox="0 0 89 100" fill="none" xmlns="http://www.w3.org/2000/svg">
<path d="M80.3173 4.40223C69.1676 8.26175 50.9242 19.0898 35.1645 32.7947C12.4005 52.5926 0.268022 72.194 4.89587 76.393C10.4171 81.4139 24.3364 71.6222 24.6938 71.9974C25.0869 72.4441 17.8681 77.8224 12.4898 79.8594C5.86075 82.361 0.0357363 80.0917 0 74.2488L2.75169 8.56551C2.89464 3.99126 7.6833 -0.189885 12.472 0.00666429C12.472 0.00666429 65.2187 2.38313 80.1386 3.09785C80.9248 3.13359 81.0499 4.15207 80.3173 4.40223Z" fill="#FF3E00"/>
<path d="M84.6413 33.6699C77.5655 23.503 63.5748 20.5011 53.4793 26.9515L35.7183 38.2978C33.324 39.8166 31.2692 41.8178 29.6789 44.1585C28.0886 46.5171 27.0166 49.1795 26.5162 51.9669C25.7837 56.023 26.2304 60.2041 27.8028 63.9922C28.2673 65.1357 28.1959 66.4044 27.6241 67.4943C26.6592 69.3526 25.9623 71.336 25.5871 73.4087C25.0868 76.2676 25.1404 79.198 25.7837 82.0211C26.4269 84.8443 27.6062 87.5245 29.2858 89.8831C36.3616 100.05 50.3524 103.052 60.4479 96.6016L78.2088 85.2553C80.6031 83.7365 82.658 81.7352 84.2482 79.3945C85.8385 77.0359 86.9106 74.3736 87.4109 71.5861C88.1435 67.5301 87.6968 63.3489 86.1244 59.5609C85.6598 58.4173 85.7313 57.1487 86.3031 56.0587C87.2679 54.2004 87.9648 52.2171 88.34 50.1444C88.8403 47.2855 88.7867 44.3551 88.1435 41.5319C87.5002 38.7087 86.3209 36.0285 84.6413 33.6699Z" fill="#FF3E00"/>
<path d="M51.7461 90.8659C48.9587 91.5985 46.0104 91.4377 43.2944 90.4371C40.5964 89.4364 38.2556 87.6139 36.6118 85.2374C35.5933 83.8258 34.8786 82.2177 34.5033 80.5202C34.1281 78.8228 34.0745 77.0538 34.3782 75.3385C34.4855 74.7667 34.6284 74.2128 34.8071 73.6767L35.1466 72.6583L35.4861 72.9084C37.9519 74.731 40.7214 76.1247 43.6697 77.0181L43.6161 77.6792C43.5267 78.6262 43.7948 79.5554 44.3308 80.3237C44.8311 81.0384 45.528 81.5923 46.3499 81.8961C47.1718 82.1998 48.0474 82.2535 48.8872 82.0212C49.2803 81.914 49.6376 81.7531 49.9771 81.5387L67.7381 70.1924C68.1669 69.9244 68.5421 69.5492 68.828 69.1204C69.1139 68.6915 69.3105 68.2091 69.3998 67.7088C69.4892 67.1906 69.4713 66.6546 69.3641 66.1542C69.2569 65.6361 69.0246 65.1536 68.7208 64.7248C68.2205 64.0101 67.5237 63.4562 66.7017 63.1524C65.8798 62.8486 65.0042 62.795 64.1644 63.0273C63.7713 63.1345 63.414 63.2953 63.0745 63.5098L56.3025 67.8339C55.1946 68.5486 53.9796 69.0846 52.6931 69.4241C49.9057 70.1567 46.9574 69.9959 44.2415 68.9953C41.5434 67.9947 39.2026 66.1721 37.5588 63.7957C36.5403 62.3841 35.8256 60.7759 35.4503 59.0785C35.0751 57.381 35.0215 55.612 35.3253 53.8967C35.629 52.2171 36.2723 50.609 37.2193 49.1974C38.1663 47.7858 39.4171 46.5708 40.8465 45.6773L58.6074 34.3311C59.7153 33.6163 60.9303 33.0803 62.2168 32.7408C65.0042 32.0082 67.9525 32.169 70.6685 33.1696C73.3665 34.1703 75.7073 35.9928 77.3511 38.3693C78.3696 39.7809 79.0844 41.389 79.4596 43.0865C79.8348 44.7839 79.8884 46.5529 79.5847 48.2682C79.4775 48.84 79.3345 49.3939 79.1558 49.93L78.8163 50.9485L78.4768 50.6983C76.011 48.8757 73.2415 47.4999 70.3111 46.6065L70.3647 45.9454C70.4362 44.9984 70.186 44.0692 69.65 43.3009C69.1497 42.5862 68.4528 42.0322 67.6309 41.7285C66.8089 41.4247 65.9334 41.3711 65.0936 41.6034C64.7005 41.7106 64.3431 41.8714 64.0036 42.0858L46.2427 53.4321C45.8139 53.7001 45.4386 54.0754 45.1527 54.4863C44.8668 54.9152 44.6703 55.3976 44.581 55.8979C44.4916 56.4161 44.5095 56.9522 44.6167 57.4525C44.7239 57.9706 44.9562 58.4531 45.2599 58.8819C45.7603 59.5966 46.4571 60.1506 47.279 60.4543C48.101 60.7581 48.9765 60.8117 49.8163 60.5794C50.2094 60.4722 50.5668 60.3114 50.9063 60.0969L57.6783 55.7729C58.7861 55.0581 60.0012 54.5221 61.2877 54.1826C64.0751 53.45 67.0233 53.6108 69.7393 54.6114C72.4374 55.612 74.7781 57.4346 76.422 59.8111C77.4405 61.2226 78.1552 62.8308 78.5304 64.5282C78.9057 66.2257 78.9593 67.9947 78.6555 69.71C78.3518 71.3896 77.7085 72.9977 76.7615 74.4093C75.8145 75.8209 74.5637 77.0359 73.1343 77.9472L55.3733 89.2935C54.2655 90.0082 53.0505 90.5443 51.7639 90.8838L51.7461 90.8659Z" fill="white"/>
<path d="M70.8116 22.1988C72.4733 22.8957 74.3852 22.4668 75.4215 20.9838C78.4234 16.6418 83.4979 8.5833 81.4074 6.49272C79.7992 4.86672 68.578 11.7102 59.1436 17.9462C57.1067 19.2863 58.4111 22.4668 60.8054 22.0023C64.5041 21.2697 68.1671 21.1089 70.8116 22.2167V22.1988Z" fill="#FF3E00"/>
<path d="M8.18355 74.3025C10.2026 76.9827 16.4922 74.1238 20.3875 71.9617C22.1743 70.9611 23.032 68.9599 22.4602 67.1195C21.5132 64.0461 20.5126 58.7929 21.9599 52.5391C22.2279 51.3598 20.6555 50.6629 19.8514 51.6099C14.2945 58.1139 5.00302 70.1034 8.20141 74.3203L8.18355 74.3025Z" fill="#FF3E00"/>
<path d="M12.1145 11.6924L16.6531 14.0688L21.1737 11.6924L20.316 16.7312L23.979 20.3048L18.9223 21.0374L16.6531 25.6295L14.3838 21.0374L9.32712 20.3048L12.9901 16.7312L12.1145 11.6924Z" fill="white"/>
</svg>
